
<svg width="343" height="71" viewBox="0 0 343 71" fill="none" xmlns="http://www.w3.org/2000/svg">
<path d="M331.429 70.6909C329.616 70.6909 327.742 70.5273 325.81 70.2003C323.907 69.9029 322.123 69.2934 320.458 68.3717C318.822 67.4202 317.499 66.0376 316.488 64.2239C315.477 62.4101 314.972 60.0166 314.972 57.0433C314.972 56.3892 314.972 55.7202 314.972 55.0363C314.972 54.3524 314.972 53.6686 314.972 52.9847V33.0486H304.045V22.3446H307.122C308.906 22.3446 310.319 22.2702 311.359 22.1216C312.43 21.9729 313.218 21.6012 313.723 21.0066C314.258 20.3822 314.6 19.4159 314.749 18.1076C314.898 16.7993 314.972 15.0005 314.972 12.711V6.73462H328.842V22.3446H342.624V33.0486H328.842V50.0857C328.842 50.6209 328.842 51.1412 328.842 51.6467C328.842 52.1522 328.842 52.6428 328.842 53.1185C328.842 55.1701 329.08 56.8352 329.556 58.1137C330.062 59.3922 331.295 60.0315 333.258 60.0315C334.239 60.0315 335.161 59.9423 336.023 59.7639C336.915 59.5855 337.584 59.4071 338.03 59.2287V69.6205C337.406 69.8881 336.528 70.1259 335.399 70.3341C334.269 70.5719 332.946 70.6909 331.429 70.6909Z" fill="#403685"/>
<path d="M267.121 69.7092V22.3441H280.992V38.6677L278.137 36.8837C278.464 34.6537 279.059 32.6021 279.921 30.7289C280.784 28.8557 281.899 27.2353 283.266 25.8675C284.634 24.4701 286.254 23.3848 288.128 22.6117C290.031 21.8387 292.201 21.4521 294.639 21.4521C296.542 21.4521 298.029 21.6008 299.099 21.8981C300.199 22.1657 300.883 22.3739 301.151 22.5225L298.876 34.9213C298.609 34.7726 298.014 34.5348 297.092 34.2077C296.17 33.8806 294.981 33.7171 293.524 33.7171C291.146 33.7171 289.153 34.1185 287.548 34.9213C285.942 35.7241 284.649 36.7945 283.668 38.1325C282.716 39.4408 282.032 40.8977 281.616 42.5033C281.2 44.1089 280.992 45.7293 280.992 47.3647V69.7092H267.121Z" fill="#403685"/>
<path d="M227.163 70.6904C223.713 70.6904 220.636 70.1404 217.93 69.0402C215.254 67.9401 213.158 66.3494 211.642 64.268C210.125 62.1867 209.367 59.6594 209.367 56.6861C209.367 53.3262 210.289 50.5907 212.132 48.4797C213.976 46.3686 216.414 44.763 219.447 43.6629C222.509 42.533 225.825 41.7897 229.393 41.4329C234.596 40.9274 238.179 40.4666 240.141 40.0503C242.133 39.634 243.129 38.9056 243.129 37.8649C243.129 37.8352 243.129 37.8054 243.129 37.7757C243.129 36.0214 242.282 34.6388 240.587 33.6279C238.922 32.617 236.588 32.1115 233.585 32.1115C230.403 32.1115 227.965 32.6913 226.271 33.8509C224.605 34.9808 223.773 36.7202 223.773 39.0691H210.17C210.17 35.2632 211.196 32.0521 213.247 29.4355C215.329 26.819 218.139 24.8417 221.677 23.5037C225.215 22.136 229.214 21.4521 233.674 21.4521C237.837 21.4521 241.687 22.0914 245.225 23.3699C248.764 24.6187 251.603 26.5068 253.744 29.0341C255.915 31.5615 257 34.7726 257 38.6677C257 39.2921 257 39.9165 257 40.5409C257 41.1356 257 41.7451 257 42.3695V59.139C257 60.3581 257.03 61.5326 257.089 62.6624C257.178 63.7626 257.357 64.7735 257.624 65.6952C257.922 66.7359 258.293 67.5982 258.739 68.282C259.185 68.9659 259.557 69.4416 259.854 69.7092H246.251C246.043 69.5011 245.716 69.07 245.27 68.4158C244.854 67.7617 244.497 67.0035 244.2 66.1412C243.843 65.1006 243.575 64.0599 243.397 63.0192C243.248 61.9488 243.174 60.7 243.174 59.2728L246.028 61.2352C245.196 63.1976 243.843 64.8924 241.97 66.3196C240.126 67.7171 237.926 68.8024 235.369 69.5754C232.842 70.3188 230.106 70.6904 227.163 70.6904ZM230.864 60.3432C233.035 60.3432 235.057 59.9567 236.93 59.1836C238.833 58.3808 240.379 57.1321 241.568 55.4373C242.758 53.7425 243.352 51.5273 243.352 48.7919V44.0197L246.786 47.3647C244.824 48.0783 242.55 48.6729 239.963 49.1487C237.406 49.5947 234.849 49.9515 232.292 50.2191C229.259 50.5164 226.984 51.0367 225.468 51.7801C223.981 52.4937 223.238 53.7127 223.238 55.4373C223.238 57.0726 223.877 58.3065 225.156 59.139C226.434 59.9418 228.337 60.3432 230.864 60.3432Z" fill="#403685"/>
<path d="M162.59 69.7096V0H175.702V39.9169L172.982 38.4897L191.045 22.3445H207.993L184.533 43.3065L187.477 38.0437L207.591 69.7096H193.052L178.423 45.3135L181.946 45.5811L174.275 52.5387L175.702 46.6069V69.7096H162.59Z" fill="#403685"/>
<path d="M122.869 70.6016C119.509 70.6016 116.744 70.0664 114.573 68.996C112.403 67.8958 110.693 66.424 109.444 64.5806C108.195 62.7371 107.318 60.6855 106.813 58.4258C106.307 56.1661 106.055 53.8766 106.055 51.5574C106.055 50.487 106.055 49.3571 106.055 48.1678C106.055 46.9785 106.055 45.7594 106.055 44.5106V22.3445H119.881V42.3252C119.881 43.3362 119.881 44.3174 119.881 45.2688C119.881 46.2203 119.881 47.0974 119.881 47.9002C119.881 49.8923 120.104 51.7209 120.55 53.386C120.996 55.0511 121.813 56.3891 123.003 57.4C124.222 58.4109 125.946 58.9164 128.176 58.9164C130.347 58.9164 132.19 58.3069 133.707 57.0878C135.223 55.839 136.383 54.2483 137.185 52.3156C137.988 50.3829 138.39 48.3908 138.39 46.3392L142.27 49.5058C142.27 52.4791 141.809 55.2443 140.887 57.8014C139.995 60.3584 138.717 62.6033 137.052 64.536C135.387 66.4389 133.35 67.9256 130.941 68.996C128.563 70.0664 125.872 70.6016 122.869 70.6016ZM138.39 69.7096V22.3445H152.216V69.7096H138.39Z" fill="#FF922E"/>
<path d="M67.0581 70.78C63.1035 70.78 59.4612 69.8434 56.1311 67.9702C52.801 66.0673 50.125 63.2575 48.1031 59.5408C46.0812 55.8242 45.0703 51.2453 45.0703 45.8041C45.0703 40.6008 46.0961 36.1854 48.1477 32.5579C50.229 28.9305 52.9348 26.1801 56.2649 24.3069C59.6247 22.404 63.2225 21.4525 67.0581 21.4525C70.8044 21.4525 74.2238 22.404 77.316 24.3069C80.438 26.2099 82.9356 28.8115 84.8088 32.1119C86.682 35.3826 87.6186 39.1587 87.6186 43.4403C87.6186 43.589 87.6186 43.7376 87.6186 43.8863C87.6186 44.0052 87.6186 44.139 87.6186 44.2877L81.6422 44.3769C81.6422 44.2877 81.6422 44.1985 81.6422 44.1093C81.6422 43.9904 81.6422 43.8863 81.6422 43.7971C81.6422 41.5671 81.107 39.6493 80.0366 38.0437C78.9662 36.4381 77.5836 35.2042 75.8888 34.3419C74.194 33.4499 72.4249 33.0039 70.5814 33.0039C67.5189 33.0039 64.8727 34.0297 62.6427 36.0813C60.4127 38.1032 59.2977 41.3441 59.2977 45.8041C59.2977 50.2641 60.4127 53.5496 62.6427 55.6607C64.9024 57.742 67.5487 58.7826 70.5814 58.7826C72.4844 58.7826 74.2832 58.3367 75.978 57.4447C77.6728 56.5229 79.0406 55.2295 80.0812 53.5645C81.1219 51.8994 81.6422 49.937 81.6422 47.6773L87.6186 47.9895C87.6186 52.2413 86.6969 56.0918 84.8534 59.5408C83.0397 62.9602 80.5718 65.6956 77.4498 67.7472C74.3576 69.7691 70.8936 70.78 67.0581 70.78ZM81.6422 69.7096V0H95.5128V69.7096H81.6422Z" fill="#FF922E"/>
<path d="M7.67118 14.6288L13.9152 8.02799V35.2785L10.7932 31.3537H35.0555V42.0577H10.7932L13.9152 38.1329V65.6064L7.67118 59.0057H40.0061V69.7096H0V3.9248H40.0061V14.6288H7.67118Z" fill="#FF922E"/>
</svg>